<?xml version="1.0" encoding="utf-8"?>
<!-- Generator: Adobe Illustrator 21.0.0, SVG Export Plug-In . SVG Version: 6.00 Build 0)  -->
<svg xmlns="http://www.w3.org/2000/svg" xmlns:xlink="http://www.w3.org/1999/xlink" version="1.1" id="Main_Layer" x="0px" y="0px" viewBox="0 0 692 743" style="enable-background:new 0 0 692.5 743;" xml:space="preserve" width="692" height="743">
<style type="text/css">
	.st0{fill:#FFFFFF;}
	.st1{fill:#999999;}
	.st2{font-family:'ArialMT';}
	.st3{font-size:25px;}
	.st4{fill:none;stroke:#999999;stroke-width:3;}
	.st5{fill:none;stroke:#CCCCCC;stroke-miterlimit:10;}
	.st6{font-size:12px;}
	.st7{font-size:30px;}
	.st8{fill:#7F7F7F;}
	.st9{opacity:0.2;fill:#FF6666;enable-background:new    ;}
</style>
<g id="others">
	<path id="floor" class="st0" d="M674.5,653H18c-6.6,0-12-5.4-12-12V18c0-6.6,5.4-12,12-12h656.5c6.6,0,12,5.4,12,12v623   C686.5,647.6,681.1,653,674.5,653z"/>
	<text id="text67" transform="matrix(1 0 0 1 311.3472 729.6677)" class="st1 st2 st3">Сцена</text>
	<path id="scene_2_" class="st4" d="M478.2,703.5c-42.3-7.2-85.7-10.9-130-10.9s-87.8,3.8-130,10.9"/>
	<path id="table_38_" class="st5" d="M57,569.3v-24.7c0-2,1.6-3.6,3.6-3.6h42.8c2,0,3.6,1.6,3.6,3.6v24.7c0,2-1.6,3.6-3.6,3.6H60.6   C58.6,572.8,57,571.2,57,569.3z"/>
	<text transform="matrix(1 0 0 1 78.6655 561.1157)" class="st1 st2 st6">1</text>
	<path id="table_1_" class="st5" d="M57,437.2v-24.7c0-2,1.6-3.6,3.6-3.6h42.8c2,0,3.6,1.6,3.6,3.6v24.7c0,2-1.6,3.6-3.6,3.6H60.6   C58.6,440.7,57,439.1,57,437.2z"/>
	<text transform="matrix(1 0 0 1 78.6655 429.0158)" class="st1 st2 st6">2</text>
	<path id="table_2_" class="st5" d="M57,305.1v-24.7c0-2,1.6-3.6,3.6-3.6h42.8c2,0,3.6,1.6,3.6,3.6v24.7c0,2-1.6,3.6-3.6,3.6H60.6   C58.6,308.6,57,307,57,305.1z"/>
	<text transform="matrix(1 0 0 1 78.6655 296.9158)" class="st1 st2 st6">3</text>
	<path id="table_4_" class="st5" d="M226.5,196.7h-24.7c-2,0-3.6-1.6-3.6-3.6v-42.8c0-2,1.6-3.6,3.6-3.6h24.7c2,0,3.6,1.6,3.6,3.6   v42.8C230,195.1,228.4,196.7,226.5,196.7z"/>
	<text transform="matrix(1 0 0 1 210.7655 175.9032)" class="st1 st2 st6">5</text>
	<path id="table_5_" class="st5" d="M358.6,196.7h-24.7c-2,0-3.6-1.6-3.6-3.6v-42.8c0-2,1.6-3.6,3.6-3.6h24.7c2,0,3.6,1.6,3.6,3.6   v42.8C362.1,195.1,360.5,196.7,358.6,196.7z"/>
	<text transform="matrix(1 0 0 1 342.8654 175.9032)" class="st1 st2 st6">6</text>
	<path id="table_6_" class="st5" d="M490.7,196.7H466c-2,0-3.6-1.6-3.6-3.6v-42.8c0-2,1.6-3.6,3.6-3.6h24.7c2,0,3.6,1.6,3.6,3.6   v42.8C494.2,195.1,492.6,196.7,490.7,196.7z"/>
	<text transform="matrix(1 0 0 1 474.9653 175.9032)" class="st1 st2 st6">7</text>
	<path id="table_7_" class="st5" d="M622.8,196.7h-24.7c-2,0-3.6-1.6-3.6-3.6v-42.8c0-2,1.6-3.6,3.6-3.6h24.7c2,0,3.6,1.6,3.6,3.6   v42.8C626.3,195.1,624.7,196.7,622.8,196.7z"/>
	<text transform="matrix(1 0 0 1 607.0652 175.9032)" class="st1 st2 st6">8</text>
	<text transform="matrix(1 0 0 1 607.0654 465.0662)" class="st1 st2 st6">9</text>
	<path id="table_31_" class="st5" d="M598.1,405.9h24.7c2,0,3.6,1.6,3.6,3.6v102.8c0,2-1.6,3.6-3.6,3.6h-24.7c-2,0-3.6-1.6-3.6-3.6   V409.5C594.6,407.5,596.2,405.9,598.1,405.9z"/>
	<text transform="matrix(1 0 0 1 78.6659 125.9036)" class="st1 st2 st6">4</text>
	<path id="table_3_" class="st5" d="M69.7,66.7h24.7c2,0,3.6,1.6,3.6,3.6v102.8c0,2-1.6,3.6-3.6,3.6H69.7c-2,0-3.6-1.6-3.6-3.6V70.3   C66.2,68.3,67.8,66.7,69.7,66.7z"/>
	<text transform="matrix(1 0 0 1 254.8307 467.1176)" class="st1 st2 st7"> Meet &amp; Greet</text>
	<text transform="matrix(1 0 0 1 261.4594 589.1176)" class="st1 st2 st7">VIP-входной</text>
	<text transform="matrix(1 0 0 1 288.6028 333.1176)" class="st1 st2 st7">Танцпол</text>
</g>
<g id="scheme">
	<g id="Танцпол">
		
		
		
		
	</g>
	
	
	
</g>
<style>@font-face {font-family: ArialMT; src: local("Arial");} @font-face {font-family: arialMT; src: local("Arial");</style></svg>
